<?xml version="1.0" encoding="utf-8" ?>
<svg baseProfile="tiny" height="250" version="1.2" width="2350" xmlns="http://www.w3.org/2000/svg" xmlns:ev="http://www.w3.org/2001/xml-events" xmlns:xlink="http://www.w3.org/1999/xlink"><defs /><rect fill="rgb(255,255,255)" height="100%" width="100%" x="0" y="0" /><line stroke="rgb(0,0,0)" stroke-width="2" x1="50" x2="100" y1="200" y2="150" /><polygon fill="rgb(20,78,204)" points="50,200 100,150 100,200 50,200 50,200" /><text fill="black" x="70" y="225">A</text><line stroke="rgb(0,0,0)" stroke-width="2" x1="100" x2="150" y1="150" y2="200" /><polygon fill="rgb(255,42,0)" points="100,150 150,200 150,200 100,200 100,150" /><text fill="black" x="120" y="225">G</text><line stroke="rgb(0,0,0)" stroke-width="2" x1="150" x2="200" y1="200" y2="100" /><polygon fill="rgb(20,78,204)" points="150,200 200,100 200,200 150,200 150,200" /><text fill="black" x="170" y="225">A</text><line stroke="rgb(0,0,0)" stroke-width="2" x1="200" x2="250" y1="100" y2="50" /><polygon fill="rgb(175,255,25)" points="200,100 250,50 250,200 200,200 200,100" /><text fill="black" x="220" y="225">T</text><line stroke="rgb(0,0,0)" stroke-width="2" x1="250" x2="300" y1="50" y2="150" /><polygon fill="rgb(178,110,96)" points="250,50 300,150 300,200 250,200 250,50" /><text fill="black" x="270" y="225">C</text><line stroke="rgb(0,0,0)" stroke-width="2" x1="300" x2="350" y1="150" y2="200" /><polygon fill="rgb(255,42,0)" points="300,150 350,200 350,200 300,200 300,150" /><text fill="black" x="320" y="225">G</text><line stroke="rgb(0,0,0)" stroke-width="2" x1="350" x2="400" y1="200" y2="100" /><polygon fill="rgb(20,78,204)" points="350,200 400,100 400,200 350,200 350,200" /><text fill="black" x="370" y="225">A</text><line stroke="rgb(0,0,0)" stroke-width="2" x1="400" x2="450" y1="100" y2="50" /><polygon fill="rgb(175,255,25)" points="400,100 450,50 450,200 400,200 400,100" /><text fill="black" x="420" y="225">T</text><line stroke="rgb(0,0,0)" stroke-width="2" x1="450" x2="500" y1="50" y2="150" /><polygon fill="rgb(178,110,96)" points="450,50 500,150 500,200 450,200 450,50" /><text fill="black" x="470" y="225">C</text><line stroke="rgb(0,0,0)" stroke-width="2" x1="500" x2="550" y1="150" y2="100" /><polygon fill="rgb(255,42,0)" points="500,150 550,100 550,200 500,200 500,150" /><text fill="black" x="520" y="225">G</text><line stroke="rgb(0,0,0)" stroke-width="2" x1="550" x2="600" y1="100" y2="200" /><polygon fill="rgb(175,255,25)" points="550,100 600,200 600,200 550,200 550,100" /><text fill="black" x="570" y="225">T</text><line stroke="rgb(0,0,0)" stroke-width="2" x1="600" x2="650" y1="200" y2="150" /><polygon fill="rgb(20,78,204)" points="600,200 650,150 650,200 600,200 600,200" /><text fill="black" x="620" y="225">A</text><line stroke="rgb(0,0,0)" stroke-width="2" x1="650" x2="700" y1="150" y2="50" /><polygon fill="rgb(255,42,0)" points="650,150 700,50 700,200 650,200 650,150" /><text fill="black" x="670" y="225">G</text><line stroke="rgb(0,0,0)" stroke-width="2" x1="700" x2="750" y1="50" y2="100" /><polygon fill="rgb(178,110,96)" points="700,50 750,100 750,200 700,200 700,50" /><text fill="black" x="720" y="225">C</text><line stroke="rgb(0,0,0)" stroke-width="2" x1="750" x2="800" y1="100" y2="150" /><polygon fill="rgb(175,255,25)" points="750,100 800,150 800,200 750,200 750,100" /><text fill="black" x="770" y="225">T</text><line stroke="rgb(0,0,0)" stroke-width="2" x1="800" x2="850" y1="150" y2="200" /><polygon fill="rgb(255,42,0)" points="800,150 850,200 850,200 800,200 800,150" /><text fill="black" x="820" y="225">G</text><line stroke="rgb(0,0,0)" stroke-width="2" x1="850" x2="900" y1="200" y2="100" /><polygon fill="rgb(20,78,204)" points="850,200 900,100 900,200 850,200 850,200" /><text fill="black" x="870" y="225">A</text><line stroke="rgb(0,0,0)" stroke-width="2" x1="900" x2="950" y1="100" y2="50" /><polygon fill="rgb(175,255,25)" points="900,100 950,50 950,200 900,200 900,100" /><text fill="black" x="920" y="225">T</text><line stroke="rgb(0,0,0)" stroke-width="2" x1="950" x2="1000" y1="50" y2="150" /><polygon fill="rgb(178,110,96)" points="950,50 1000,150 1000,200 950,200 950,50" /><text fill="black" x="970" y="225">C</text><line stroke="rgb(0,0,0)" stroke-width="2" x1="1000" x2="1050" y1="150" y2="50" /><polygon fill="rgb(255,42,0)" points="1000,150 1050,50 1050,200 1000,200 1000,150" /><text fill="black" x="1020" y="225">G</text><line stroke="rgb(0,0,0)" stroke-width="2" x1="1050" x2="1100" y1="50" y2="100" /><polygon fill="rgb(178,110,96)" points="1050,50 1100,100 1100,200 1050,200 1050,50" /><text fill="black" x="1070" y="225">C</text><line stroke="rgb(0,0,0)" stroke-width="2" x1="1100" x2="1150" y1="100" y2="100" /><polygon fill="rgb(175,255,25)" points="1100,100 1150,100 1150,200 1100,200 1100,100" /><text fill="black" x="1120" y="225">T</text><line stroke="rgb(0,0,0)" stroke-width="2" x1="1150" x2="1200" y1="100" y2="200" /><polygon fill="rgb(175,255,25)" points="1150,100 1200,200 1200,200 1150,200 1150,100" /><text fill="black" x="1170" y="225">T</text><line stroke="rgb(0,0,0)" stroke-width="2" x1="1200" x2="1250" y1="200" y2="200" /><polygon fill="rgb(20,78,204)" points="1200,200 1250,200 1250,200 1200,200 1200,200" /><text fill="black" x="1220" y="225">A</text><line stroke="rgb(0,0,0)" stroke-width="2" x1="1250" x2="1300" y1="200" y2="200" /><polygon fill="rgb(20,78,204)" points="1250,200 1300,200 1300,200 1250,200 1250,200" /><text fill="black" x="1270" y="225">A</text><line stroke="rgb(0,0,0)" stroke-width="2" x1="1300" x2="1350" y1="200" y2="200" /><polygon fill="rgb(20,78,204)" points="1300,200 1350,200 1350,200 1300,200 1300,200" /><text fill="black" x="1320" y="225">A</text><line stroke="rgb(0,0,0)" stroke-width="2" x1="1350" x2="1400" y1="200" y2="200" /><polygon fill="rgb(20,78,204)" points="1350,200 1400,200 1400,200 1350,200 1350,200" /><text fill="black" x="1370" y="225">A</text><line stroke="rgb(0,0,0)" stroke-width="2" x1="1400" x2="1450" y1="200" y2="100" /><polygon fill="rgb(20,78,204)" points="1400,200 1450,100 1450,200 1400,200 1400,200" /><text fill="black" x="1420" y="225">A</text><line stroke="rgb(0,0,0)" stroke-width="2" x1="1450" x2="1500" y1="100" y2="50" /><polygon fill="rgb(175,255,25)" points="1450,100 1500,50 1500,200 1450,200 1450,100" /><text fill="black" x="1470" y="225">T</text><line stroke="rgb(0,0,0)" stroke-width="2" x1="1500" x2="1550" y1="50" y2="150" /><polygon fill="rgb(178,110,96)" points="1500,50 1550,150 1550,200 1500,200 1500,50" /><text fill="black" x="1520" y="225">C</text><line stroke="rgb(0,0,0)" stroke-width="2" x1="1550" x2="1600" y1="150" y2="50" /><polygon fill="rgb(255,42,0)" points="1550,150 1600,50 1600,200 1550,200 1550,150" /><text fill="black" x="1570" y="225">G</text><line stroke="rgb(0,0,0)" stroke-width="2" x1="1600" x2="1650" y1="50" y2="100" /><polygon fill="rgb(178,110,96)" points="1600,50 1650,100 1650,200 1600,200 1600,50" /><text fill="black" x="1620" y="225">C</text><line stroke="rgb(0,0,0)" stroke-width="2" x1="1650" x2="1700" y1="100" y2="200" /><polygon fill="rgb(175,255,25)" points="1650,100 1700,200 1700,200 1650,200 1650,100" /><text fill="black" x="1670" y="225">T</text><line stroke="rgb(0,0,0)" stroke-width="2" x1="1700" x2="1750" y1="200" y2="150" /><polygon fill="rgb(20,78,204)" points="1700,200 1750,150 1750,200 1700,200 1700,200" /><text fill="black" x="1720" y="225">A</text><line stroke="rgb(0,0,0)" stroke-width="2" x1="1750" x2="1800" y1="150" y2="200" /><polygon fill="rgb(255,42,0)" points="1750,150 1800,200 1800,200 1750,200 1750,150" /><text fill="black" x="1770" y="225">G</text><line stroke="rgb(0,0,0)" stroke-width="2" x1="1800" x2="1850" y1="200" y2="100" /><polygon fill="rgb(20,78,204)" points="1800,200 1850,100 1850,200 1800,200 1800,200" /><text fill="black" x="1820" y="225">A</text><line stroke="rgb(0,0,0)" stroke-width="2" x1="1850" x2="1900" y1="100" y2="200" /><polygon fill="rgb(175,255,25)" points="1850,100 1900,200 1900,200 1850,200 1850,100" /><text fill="black" x="1870" y="225">T</text><line stroke="rgb(0,0,0)" stroke-width="2" x1="1900" x2="1950" y1="200" y2="150" /><polygon fill="rgb(20,78,204)" points="1900,200 1950,150 1950,200 1900,200 1900,200" /><text fill="black" x="1920" y="225">A</text><line stroke="rgb(0,0,0)" stroke-width="2" x1="1950" x2="2000" y1="150" y2="50" /><polygon fill="rgb(255,42,0)" points="1950,150 2000,50 2000,200 1950,200 1950,150" /><text fill="black" x="1970" y="225">G</text><line stroke="rgb(0,0,0)" stroke-width="2" x1="2000" x2="2050" y1="50" y2="100" /><polygon fill="rgb(178,110,96)" points="2000,50 2050,100 2050,200 2000,200 2000,50" /><text fill="black" x="2020" y="225">C</text><line stroke="rgb(0,0,0)" stroke-width="2" x1="2050" x2="2100" y1="100" y2="100" /><polygon fill="rgb(175,255,25)" points="2050,100 2100,100 2100,200 2050,200 2050,100" /><text fill="black" x="2070" y="225">T</text><line stroke="rgb(0,0,0)" stroke-width="2" x1="2100" x2="2150" y1="100" y2="50" /><polygon fill="rgb(175,255,25)" points="2100,100 2150,50 2150,200 2100,200 2100,100" /><text fill="black" x="2120" y="225">T</text><line stroke="rgb(0,0,0)" stroke-width="2" x1="2150" x2="2200" y1="50" y2="150" /><polygon fill="rgb(178,110,96)" points="2150,50 2200,150 2200,200 2150,200 2150,50" /><text fill="black" x="2170" y="225">C</text><line stroke="rgb(0,0,0)" stroke-width="2" x1="2200" x2="2250" y1="150" y2="50" /><polygon fill="rgb(255,42,0)" points="2200,150 2250,50 2250,200 2200,200 2200,150" /><text fill="black" x="2220" y="225">G</text><line stroke="rgb(0,0,0)" stroke-width="2" x1="2250" x2="2300" y1="50" y2="100" /><polygon fill="rgb(178,110,96)" points="2250,50 2300,100 2300,200 2250,200 2250,50" /><text fill="black" x="2270" y="225">C</text><line stroke="rgb(0,0,0)" stroke-width="2" x1="2300" x2="2300" y1="100" y2="100" /><polygon fill="rgb(175,255,25)" points="2300,100 2300,100 2300,200 2300,200 2300,100" /><text fill="black" x="2320" y="225">T</text></svg>